<?xml version="1.0" standalone="no"?>
<!DOCTYPE svg PUBLIC "-//W3C//DTD SVG 20010904//EN"
 "http://www.w3.org/TR/2001/REC-SVG-20010904/DTD/svg10.dtd">
<svg version="1.0" xmlns="http://www.w3.org/2000/svg"
 width="239.000000pt" height="239.000000pt" viewBox="0 0 239.000000 239.000000"
 preserveAspectRatio="xMidYMid meet">

<g transform="translate(0.000000,239.000000) scale(0.100000,-0.100000)"
fill="#000000" stroke="none">
<path d="M1120 2376 c0 -20 39 -46 69 -46 l26 0 -25 24 c-32 31 -70 43 -70 22z"/>
<path d="M1200 2382 c0 -11 41 -48 62 -55 31 -11 29 10 -3 37 -30 25 -59 34
-59 18z"/>
<path d="M1030 2373 c0 -17 70 -55 87 -48 16 6 15 9 -10 31 -26 22 -77 33 -77
17z"/>
<path d="M1289 2362 c15 -29 38 -44 61 -40 20 3 20 4 -5 31 -30 32 -72 39 -56
9z"/>
<path d="M1366 2371 c-7 -11 47 -71 63 -71 14 0 13 21 -2 41 -17 22 -55 41
-61 30z"/>
<path d="M955 2360 c-9 -15 41 -42 72 -38 l28 3 -35 23 c-38 24 -56 27 -65 12z"/>
<path d="M1455 2330 c15 -29 52 -57 62 -47 8 9 -25 64 -42 71 -31 11 -36 6
-20 -24z"/>
<path d="M875 2340 c-7 -11 46 -40 75 -40 29 0 25 17 -10 35 -33 17 -56 19
-65 5z"/>
<path d="M1537 2306 c15 -32 47 -55 59 -44 8 9 -42 73 -59 76 -16 3 -16 2 0
-32z"/>
<path d="M809 2300 c24 -21 81 -28 81 -10 0 15 -36 30 -72 30 l-33 -1 24 -19z"/>
<path d="M1612 2280 c9 -27 34 -50 53 -50 10 0 -6 43 -23 63 -26 29 -43 22
-30 -13z"/>
<path d="M730 2290 c-13 -9 -13 -11 0 -20 25 -17 58 -22 76 -12 15 9 14 12
-14 26 -36 19 -42 19 -62 6z"/>
<path d="M1684 2253 c7 -27 44 -68 53 -59 9 9 -18 74 -33 80 -25 10 -27 8 -20
-21z"/>
<path d="M646 2251 c-8 -12 32 -31 64 -31 19 0 36 17 27 27 -12 11 -85 15 -91
4z"/>
<path d="M1140 2246 c0 -2 5 -17 10 -32 10 -24 8 -30 -17 -50 l-28 -23 36 -1
c32 0 37 -4 46 -32 l10 -33 13 33 c10 28 17 32 47 32 l36 0 -28 21 c-23 19
-26 27 -20 57 l6 35 -26 -22 -27 -21 -29 21 c-16 11 -29 18 -29 15z"/>
<path d="M1756 2242 c-10 -16 14 -72 36 -83 19 -10 19 -8 13 23 -8 37 -39 76
-49 60z"/>
<path d="M575 2211 c-8 -14 11 -23 50 -24 40 -1 56 10 35 23 -19 12 -77 13
-85 1z"/>
<path d="M1826 2173 c7 -29 31 -63 44 -63 8 0 -3 60 -14 79 -4 6 -14 11 -22
11 -11 0 -13 -7 -8 -27z"/>
<path d="M827 2163 c-16 -29 -19 -31 -49 -22 -45 12 -45 12 -18 -16 23 -24 23
-26 7 -59 l-16 -35 34 15 c32 13 35 13 54 -12 l21 -27 0 35 c0 30 5 37 32 49
l31 13 -34 11 c-28 10 -35 18 -39 46 l-6 34 -17 -32z"/>
<path d="M510 2170 c-19 -12 -13 -17 30 -24 42 -8 74 8 50 24 -19 12 -60 13
-80 0z"/>
<path d="M1540 2151 c0 -25 -5 -30 -37 -38 l-38 -9 38 -13 c36 -12 37 -14 31
-49 l-7 -37 29 27 c21 20 33 25 44 18 31 -20 41 -12 25 19 -9 19 -11 32 -5 36
5 3 14 15 20 25 9 17 7 18 -24 13 -28 -4 -36 -1 -45 16 -16 30 -31 26 -31 -8z"/>
<path d="M1893 2124 c6 -37 23 -64 39 -64 12 0 1 69 -14 88 -20 23 -31 13 -25
-24z"/>
<path d="M445 2119 c-9 -13 -5 -16 25 -20 30 -3 70 9 70 22 0 13 -87 11 -95
-2z"/>
<path d="M1960 2075 c0 -38 13 -65 32 -65 16 0 8 58 -12 81 l-19 24 -1 -40z"/>
<path d="M385 2066 c-18 -13 -17 -14 12 -20 32 -7 73 6 73 24 0 15 -64 12 -85
-4z"/>
<path d="M2020 2012 c0 -23 6 -45 15 -52 13 -11 15 -7 15 28 0 23 -6 45 -15
52 -13 11 -15 7 -15 -28z"/>
<path d="M343 2020 c-13 -5 -23 -14 -23 -20 0 -13 56 -13 81 1 42 22 -9 39
-58 19z"/>
<path d="M1000 1990 c-281 -73 -501 -285 -586 -565 -23 -77 -27 -108 -28 -220
0 -147 15 -223 69 -342 104 -226 297 -389 540 -454 111 -30 298 -30 407 -1
274 74 491 283 578 557 34 106 39 301 11 417 -37 155 -107 281 -217 392 -110
110 -274 199 -418 225 -95 17 -270 13 -356 -9z m335 -5 c310 -54 567 -295 642
-602 24 -100 22 -285 -5 -386 -33 -121 -103 -245 -189 -337 -173 -184 -382
-270 -623 -257 -131 7 -200 25 -315 82 -203 100 -346 270 -417 495 -20 64 -23
96 -23 220 0 124 3 156 23 220 82 258 272 456 514 534 147 48 249 56 393 31z"/>
<path d="M1160 1896 c0 -52 19 -64 21 -13 l1 32 9 -32 c12 -40 24 -42 37 -5
l10 27 1 -27 c2 -51 21 -41 21 11 0 38 -4 51 -15 51 -8 0 -17 -11 -21 -25 -8
-31 -22 -32 -26 -3 -2 13 -11 24 -20 26 -15 3 -18 -4 -18 -42z"/>
<path d="M1055 1883 c7 -50 11 -60 21 -51 9 10 -7 98 -18 98 -7 0 -8 -18 -3
-47z"/>
<path d="M1306 1889 c-6 -38 -2 -59 9 -48 10 11 17 89 8 89 -6 0 -13 -19 -17
-41z"/>
<path d="M973 1908 c-18 -5 -33 -13 -33 -19 0 -6 6 -9 14 -6 9 4 17 -8 25 -35
8 -25 16 -37 22 -31 6 6 5 22 -2 42 -9 27 -9 35 2 42 21 13 7 17 -28 7z"/>
<path d="M1371 1889 c-17 -49 -14 -66 14 -71 27 -6 34 6 9 16 -9 3 -13 13 -10
23 2 10 7 28 11 41 10 34 -12 26 -24 -9z"/>
<path d="M1457 1847 c-17 -40 -17 -43 0 -54 9 -7 24 -13 32 -13 13 1 12 4 -3
15 -18 13 -19 19 -8 48 14 39 15 47 5 47 -5 0 -16 -19 -26 -43z"/>
<path d="M875 1868 c-11 -6 -21 -12 -23 -13 -4 -3 29 -85 34 -85 12 0 54 25
54 32 0 5 -9 4 -19 -2 -27 -14 -39 7 -15 26 18 15 18 15 -3 11 -29 -6 -39 9
-16 22 10 5 16 12 13 14 -3 3 -14 1 -25 -5z"/>
<path d="M1560 1856 c0 -2 9 -6 20 -9 11 -3 18 -1 14 4 -5 9 -34 13 -34 5z"/>
<path d="M1541 1804 c-29 -49 -15 -65 15 -17 26 41 29 53 15 53 -5 0 -19 -16
-30 -36z"/>
<path d="M797 1823 c-4 -6 -4 -18 -1 -27 7 -18 -7 -21 -23 -5 -6 6 -17 8 -24
4 -8 -6 0 -14 25 -27 20 -10 36 -23 36 -28 0 -6 7 -10 16 -10 15 0 15 2 1 23
-8 13 -17 37 -19 53 -2 17 -6 24 -11 17z"/>
<path d="M1043 1785 c-137 -37 -291 -151 -361 -268 -214 -355 -25 -808 378
-908 30 -7 98 -13 150 -13 226 2 431 134 530 339 50 103 64 180 57 303 -6 120
-32 199 -99 299 -82 122 -209 211 -353 248 -74 19 -232 19 -302 0z m272 -10
c228 -48 411 -232 460 -460 19 -90 19 -138 -1 -233 -31 -151 -117 -280 -245
-368 -100 -68 -180 -95 -299 -101 -180 -10 -322 46 -450 176 -116 118 -170
247 -170 406 0 166 57 302 175 420 143 143 334 201 530 160z"/>
<path d="M1178 1714 c-13 -12 -9 -47 7 -68 20 -27 19 -49 -5 -94 -26 -49 -9
-54 36 -11 42 40 43 68 5 111 -16 18 -30 41 -32 51 -2 11 -7 15 -11 11z"/>
<path d="M1138 1605 c-32 -50 -37 -95 -10 -95 19 0 62 68 62 98 0 11 -6 24
-12 30 -10 7 -20 -1 -40 -33z"/>
<path d="M1260 1585 c0 -9 -12 -27 -26 -42 -28 -28 -24 -44 8 -24 11 7 17 8
13 2 -3 -6 1 -11 9 -11 20 0 29 32 17 64 -12 29 -21 34 -21 11z"/>
<path d="M1082 1461 c-17 -39 5 -94 46 -115 31 -16 42 -34 42 -68 0 -15 -4
-18 -17 -14 -9 4 -44 9 -77 11 -61 4 -61 4 -12 -5 79 -14 81 -16 42 -51 -56
-48 -65 -115 -28 -186 11 -19 7 -20 -71 -27 -45 -3 -102 -9 -126 -12 l-44 -7
6 129 c4 73 3 120 -2 109 -4 -11 -11 -71 -15 -132 l-7 -113 42 0 c24 0 82 5
131 11 77 10 94 9 133 -6 25 -9 45 -20 45 -25 0 -5 -18 -1 -41 8 -35 14 -53
14 -137 4 -54 -7 -119 -12 -145 -12 l-49 0 7 108 c4 59 9 115 11 125 3 9 1 17
-4 17 -6 0 -13 -44 -16 -97 -4 -54 -9 -112 -12 -129 -4 -30 -3 -32 36 -38 22
-3 70 -2 105 4 100 16 178 14 213 -4 18 -9 32 -21 32 -27 0 -7 -11 -4 -27 6
-30 20 -53 21 -247 10 l-138 -8 5 39 c12 81 18 219 8 204 -5 -8 -12 -68 -16
-132 l-7 -116 49 -8 c26 -4 90 -2 143 5 130 16 157 14 196 -10 26 -16 34 -28
34 -49 0 -41 10 -60 31 -60 16 0 19 7 19 43 0 40 3 45 41 67 39 21 47 22 128
14 95 -10 246 -12 254 -4 7 7 -13 243 -21 252 -4 4 -4 -32 0 -80 3 -48 7 -104
7 -124 l1 -38 -78 0 c-44 0 -116 5 -161 11 -75 10 -85 9 -123 -10 -45 -22 -66
-19 -33 5 39 29 82 33 197 18 62 -7 128 -11 146 -8 l34 7 -8 111 c-4 61 -11
120 -15 131 -9 21 -2 -156 8 -209 l5 -29 -88 6 c-49 4 -119 9 -155 13 -52 5
-74 3 -99 -10 -38 -19 -40 -19 -40 -8 0 5 18 17 41 27 37 17 49 18 137 7 53
-7 116 -12 140 -12 42 0 43 1 38 28 -3 15 -8 73 -12 130 -3 56 -11 105 -16
108 -6 4 -8 -14 -4 -47 3 -30 8 -90 12 -133 l6 -79 -49 6 c-26 4 -85 10 -130
13 -77 7 -97 14 -73 29 5 3 14 23 20 43 14 52 -3 103 -45 141 l-35 30 38 10
c20 6 48 13 62 15 14 3 0 3 -30 1 -30 -2 -63 -6 -72 -10 -15 -6 -18 -2 -18 22
0 22 10 37 39 61 45 37 55 60 46 108 l-6 34 -107 0 -107 0 -13 -29z m208 9 c0
-6 -37 -10 -90 -10 -53 0 -90 4 -90 10 0 6 37 10 90 10 53 0 90 -4 90 -10z
m20 -35 c0 -17 -33 -66 -49 -75 -11 -5 -41 -10 -66 -10 -38 0 -52 5 -76 29
-53 54 -43 61 81 61 61 0 110 -2 110 -5z m-80 -105 c0 -5 -13 -10 -30 -10 -16
0 -30 5 -30 10 0 6 14 10 30 10 17 0 30 -4 30 -10z m-20 -44 c0 -14 -4 -28
-10 -31 -6 -4 -10 7 -10 24 0 17 5 31 10 31 6 0 10 -11 10 -24z m71 -85 c33
-33 39 -45 39 -81 0 -76 -52 -130 -125 -130 -76 0 -125 51 -125 131 0 35 6 48
39 80 34 34 44 39 86 39 42 0 52 -5 86 -39z m-71 -311 c0 -47 -4 -80 -10 -80
-6 0 -10 33 -10 80 0 47 4 80 10 80 6 0 10 -33 10 -80z"/>
<path d="M1127 1152 c-38 -42 -8 -103 49 -101 21 1 23 3 9 6 -32 8 -45 23 -45
53 0 31 14 46 50 53 19 3 17 5 -11 6 -23 1 -42 -5 -52 -17z"/>
<path d="M1245 1120 c-4 -6 -3 -16 3 -22 6 -6 12 -6 17 2 4 6 3 16 -3 22 -6 6
-12 6 -17 -2z"/>
<path d="M948 1263 c6 -2 18 -2 25 0 6 3 1 5 -13 5 -14 0 -19 -2 -12 -5z"/>
<path d="M1418 1263 c6 -2 18 -2 25 0 6 3 1 5 -13 5 -14 0 -19 -2 -12 -5z"/>
<path d="M1632 1740 l-32 -39 22 -15 c31 -22 45 -20 25 2 -19 21 -11 38 10 20
19 -15 29 -2 13 17 -7 9 -10 18 -7 22 4 3 13 0 22 -7 25 -21 27 -5 2 18 l-22
21 -33 -39z"/>
<path d="M685 1762 c6 -4 23 -24 38 -44 26 -35 47 -49 47 -30 0 13 -69 82 -82
82 -8 0 -9 -3 -3 -8z"/>
<path d="M631 1682 c-8 -15 -4 -25 23 -51 20 -19 36 -28 40 -23 3 6 2 13 -4
17 -20 12 -10 27 15 21 30 -8 34 10 5 19 -11 3 -20 13 -20 21 0 21 -47 18 -59
-4z m39 -18 c0 -8 -4 -12 -10 -9 -5 3 -10 10 -10 16 0 5 5 9 10 9 6 0 10 -7
10 -16z"/>
<path d="M1700 1670 c-14 -14 -17 -25 -11 -42 12 -34 37 -46 57 -26 16 16 12
38 -7 38 -6 0 -8 -4 -4 -9 3 -5 0 -13 -6 -17 -16 -10 -29 17 -18 38 12 22 33
23 54 2 20 -20 33 -10 15 11 -11 13 -10 14 6 9 11 -4 16 -3 11 2 -16 17 -77
14 -97 -6z"/>
<path d="M580 1613 c0 -3 15 -19 33 -34 28 -24 30 -28 14 -34 -10 -4 -28 0
-43 10 -34 22 -46 9 -14 -15 33 -26 67 -25 81 2 10 19 8 25 -20 50 -30 27 -51
36 -51 21z"/>
<path d="M1788 1583 c-46 -25 -61 -43 -37 -43 11 0 64 34 87 57 21 20 1 15
-50 -14z"/>
<path d="M1843 1536 c3 -8 -8 -19 -29 -29 -19 -9 -34 -21 -34 -27 0 -13 6 -13
41 6 24 12 34 13 45 3 17 -14 19 0 2 36 -11 25 -34 36 -25 11z"/>
<path d="M520 1499 c0 -5 6 -12 14 -15 21 -8 8 -46 -14 -39 -10 3 -21 2 -24
-3 -2 -4 15 -15 39 -24 25 -10 47 -13 50 -8 3 5 -3 11 -14 15 -30 9 -16 47 15
39 42 -11 26 11 -21 28 -25 10 -45 13 -45 7z"/>
<path d="M1851 1436 c-40 -14 -58 -43 -20 -31 52 16 69 25 69 35 0 12 -6 12
-49 -4z"/>
<path d="M470 1366 c0 -7 15 -21 33 -30 26 -13 28 -16 10 -16 -65 0 -71 -33
-8 -47 33 -7 45 -7 42 1 -2 6 -14 13 -28 17 -23 6 -23 6 5 10 41 6 42 22 4 41
l-33 16 38 -5 c22 -3 37 -1 37 4 0 6 -17 13 -37 17 -55 9 -63 8 -63 -8z"/>
<path d="M1863 1373 c-18 -2 -33 -9 -33 -15 0 -6 12 -8 30 -4 36 7 39 -1 5
-14 -34 -13 -31 -25 8 -38 31 -10 31 -10 5 -11 -24 -1 -46 -16 -36 -26 8 -8
98 19 95 29 -2 6 -18 16 -36 22 l-33 11 30 12 c20 8 29 18 25 27 -3 8 -10 13
-17 12 -6 0 -26 -3 -43 -5z"/>
<path d="M450 1221 c0 -5 19 -11 43 -13 56 -4 59 -32 5 -36 -46 -4 -51 -22 -5
-22 45 0 59 12 55 46 -3 27 -6 29 -50 32 -27 2 -48 -1 -48 -7z"/>
<path d="M1840 1168 c0 -37 13 -48 55 -45 35 2 40 5 43 28 3 28 -15 39 -70 39
-22 0 -28 -5 -28 -22z m42 -13 c0 -5 -5 -11 -11 -13 -6 -2 -11 4 -11 13 0 9 5
15 11 13 6 -2 11 -8 11 -13z m43 -5 c-3 -5 -10 -10 -16 -10 -5 0 -9 5 -9 10 0
6 7 10 16 10 8 0 12 -4 9 -10z"/>
<path d="M538 1093 c-2 -22 -8 -28 -28 -28 -18 0 -26 6 -28 23 -4 26 -22 30
-22 4 0 -11 9 -27 20 -37 31 -28 74 -10 78 33 4 39 -15 43 -20 5z"/>
<path d="M1847 1060 c4 -23 2 -30 -11 -30 -9 0 -16 -5 -16 -11 0 -8 13 -10 38
-5 20 3 43 6 50 6 24 0 11 29 -24 49 -45 27 -45 27 -37 -9z m48 -20 c3 -5 -1
-10 -9 -10 -9 0 -16 5 -16 10 0 6 4 10 9 10 6 0 13 -4 16 -10z"/>
<path d="M579 962 c14 -26 -8 -36 -27 -13 -11 14 -12 13 -7 -6 5 -17 2 -23 -9
-23 -9 0 -16 7 -16 15 0 8 -4 15 -10 15 -13 0 -12 -10 3 -37 l12 -22 42 19
c38 17 42 22 34 41 -4 13 -14 25 -20 27 -10 3 -10 0 -2 -16z"/>
<path d="M1800 970 c0 -5 7 -10 15 -10 24 0 17 -17 -10 -24 -38 -10 -30 -26 9
-19 29 4 35 2 41 -17 5 -16 10 -19 18 -11 8 8 8 14 -1 23 -16 16 -15 29 2 22
8 -3 17 -1 20 4 3 5 -14 17 -37 26 -50 19 -57 20 -57 6z"/>
<path d="M1763 863 c2 -21 -2 -28 -15 -27 -38 3 -16 -23 28 -33 59 -14 68 3
28 51 -35 42 -43 44 -41 9z m32 -33 c3 -5 1 -10 -4 -10 -6 0 -11 5 -11 10 0 6
2 10 4 10 3 0 8 -4 11 -10z"/>
<path d="M610 860 c-8 -5 -28 -10 -43 -10 -16 0 -26 -4 -23 -9 3 -5 15 -7 26
-4 22 6 26 -7 8 -25 -6 -6 -8 -15 -4 -19 4 -5 14 1 21 12 8 11 24 30 37 43 16
16 18 22 8 22 -8 0 -22 -5 -30 -10z"/>
<path d="M631 770 c-24 -22 -42 -42 -40 -44 6 -7 99 63 99 74 0 18 -14 11 -59
-30z"/>
<path d="M1711 764 l24 -26 -36 7 c-52 10 -56 -8 -9 -45 41 -32 57 -28 20 5
-26 23 -21 27 18 16 20 -6 34 -6 38 1 8 12 -45 68 -65 68 -10 0 -8 -7 10 -26z"/>
<path d="M704 742 c-4 -19 -15 -32 -32 -39 l-27 -11 34 -1 c29 -1 32 -3 21
-16 -7 -9 -10 -18 -6 -22 9 -9 66 48 66 66 0 12 -3 12 -12 3 -19 -19 -31 -14
-24 12 3 14 2 28 -4 31 -6 4 -13 -7 -16 -23z"/>
<path d="M1594 689 c-19 -22 -19 -22 5 -14 19 6 28 1 46 -21 33 -42 42 -22 10
20 -32 42 -36 43 -61 15z"/>
<path d="M780 671 c0 -10 -7 -21 -15 -25 -22 -8 -18 -44 6 -56 11 -7 22 -10
23 -8 1 2 15 19 30 40 17 23 23 39 16 43 -5 3 -13 -1 -16 -9 -9 -25 -24 -19
-24 9 0 14 -4 25 -10 25 -5 0 -10 -9 -10 -19z m14 -56 c-4 -8 -10 -12 -15 -9
-14 8 -10 24 6 24 9 0 12 -6 9 -15z"/>
<path d="M1546 652 c-7 -12 33 -82 47 -82 12 0 8 13 -17 54 -13 23 -26 34 -30
28z"/>
<path d="M882 623 c-13 -5 -42 -54 -42 -73 0 -21 17 -9 33 25 9 19 21 35 26
35 19 0 22 -20 6 -49 -18 -35 -18 -41 -4 -41 13 0 42 68 34 80 -9 15 -39 28
-53 23z"/>
<path d="M1458 609 c-10 -5 -18 -15 -18 -22 0 -22 17 -40 30 -32 9 6 9 9 -1
16 -19 11 4 34 25 26 23 -9 20 -54 -4 -62 -11 -3 -20 -11 -20 -16 0 -6 9 -7
21 -4 14 5 19 4 15 -4 -5 -7 -1 -8 9 -4 12 4 13 8 5 13 -9 5 -9 9 -1 14 19 12
13 64 -8 76 -24 12 -31 12 -53 -1z"/>
<path d="M990 554 c-6 -14 -10 -30 -10 -35 0 -5 -8 -9 -17 -9 -24 0 -4 -17 30
-25 26 -7 41 9 16 17 -8 3 -8 14 -1 41 12 42 -3 52 -18 11z"/>
<path d="M1385 563 c3 -10 9 -30 12 -45 3 -16 11 -28 19 -28 10 0 10 9 -3 45
-8 25 -19 45 -25 45 -6 0 -7 -8 -3 -17z"/>
<path d="M1174 505 c-8 -20 4 -35 27 -35 14 0 19 7 19 25 0 18 -5 25 -20 25
-11 0 -23 -7 -26 -15z"/>
<path d="M2070 1951 c0 -49 26 -76 36 -36 7 28 -9 75 -26 75 -5 0 -10 -17 -10
-39z"/>
<path d="M486 1946 c-6 -29 -11 -36 -31 -36 -34 0 -39 -15 -9 -29 22 -10 26
-17 22 -46 l-4 -35 26 24 c23 22 27 23 50 11 37 -21 42 -18 24 16 -15 30 -15
32 8 56 l23 26 -33 -6 c-29 -6 -35 -3 -51 24 l-19 30 -6 -35z"/>
<path d="M1880 1950 c-12 -28 -15 -30 -49 -24 l-36 7 24 -27 c21 -23 23 -29
12 -52 -15 -34 -8 -40 20 -20 22 15 25 14 52 -12 l30 -27 -7 38 c-6 33 -4 38
19 49 33 15 32 26 -2 30 -21 2 -29 9 -31 28 -6 40 -18 44 -32 10z"/>
<path d="M282 1954 c-29 -20 -21 -32 20 -26 57 8 81 42 30 42 -15 0 -38 -7
-50 -16z"/>
<path d="M2127 1916 c-11 -27 -8 -74 4 -81 14 -9 18 -4 25 31 7 36 -18 79 -29
50z"/>
<path d="M264 1903 c-12 -2 -30 -13 -40 -24 -17 -18 -16 -19 12 -19 30 0 74
24 74 41 0 9 -8 10 -46 2z"/>
<path d="M2167 1832 c-7 -33 1 -72 14 -72 11 0 22 42 17 71 -5 33 -24 34 -31
1z"/>
<path d="M192 1824 c-32 -22 -28 -38 10 -30 53 11 80 46 35 46 -12 0 -33 -7
-45 -16z"/>
<path d="M2217 1783 c-23 -38 -10 -118 13 -83 12 19 13 77 1 85 -5 3 -12 2
-14 -2z"/>
<path d="M171 1762 c-49 -24 -54 -47 -10 -38 31 6 59 28 59 48 0 12 -11 10
-49 -10z"/>
<path d="M2251 1697 c-15 -39 -14 -80 2 -75 20 7 32 54 20 80 l-11 23 -11 -28z"/>
<path d="M140 1692 c-42 -20 -56 -58 -18 -47 29 9 62 39 57 54 -3 7 -16 5 -39
-7z"/>
<path d="M254 1619 c5 -31 3 -37 -19 -49 -29 -15 -24 -30 11 -30 14 0 27 -7
29 -15 16 -50 17 -51 32 -16 13 31 16 33 51 27 l37 -6 -29 24 c-26 22 -28 27
-18 55 13 36 10 37 -24 15 -24 -16 -26 -16 -51 7 l-26 24 7 -36z"/>
<path d="M2044 1616 c13 -32 13 -35 -13 -60 l-26 -27 36 6 c36 7 37 6 50 -32
l13 -38 9 38 c7 30 14 37 32 37 34 0 39 15 11 34 -21 13 -24 20 -16 46 10 35
1 38 -25 10 -18 -20 -18 -20 -52 0 l-33 19 14 -33z"/>
<path d="M2280 1621 c-12 -24 -13 -81 -2 -81 12 0 32 47 32 75 0 30 -15 33
-30 6z"/>
<path d="M105 1618 c-23 -13 -35 -28 -35 -46 0 -9 8 -8 33 4 31 16 47 31 47
47 0 10 -22 8 -45 -5z"/>
<path d="M70 1530 c-33 -31 -34 -58 0 -40 28 15 50 40 50 56 0 22 -15 17 -50
-16z"/>
<path d="M2302 1535 c-14 -31 -15 -62 -3 -69 12 -8 44 62 37 80 -8 21 -21 17
-34 -11z"/>
<path d="M54 1457 c-15 -13 -25 -31 -23 -41 4 -17 7 -16 37 8 30 27 43 56 23
56 -6 0 -22 -10 -37 -23z"/>
<path d="M2326 1458 c-18 -25 -21 -68 -6 -68 11 0 40 53 40 75 0 22 -16 19
-34 -7z"/>
<path d="M48 1387 c-26 -23 -41 -51 -31 -61 9 -9 60 32 66 54 8 29 -6 32 -35
7z"/>
<path d="M2336 1375 c-18 -27 -21 -65 -7 -65 15 0 41 42 41 67 0 30 -14 29
-34 -2z"/>
<path d="M37 1305 c-25 -24 -37 -65 -19 -65 18 0 53 49 50 69 -3 21 -4 21 -31
-4z"/>
<path d="M2346 1295 c-16 -24 -22 -65 -10 -65 13 0 43 47 44 68 0 29 -14 28
-34 -3z"/>
<path d="M232 1263 c-18 -25 -22 -26 -56 -16 l-36 11 20 -25 c24 -31 25 -46 5
-63 -25 -20 -17 -30 15 -19 26 10 32 8 54 -18 l25 -28 1 37 c0 32 4 39 25 44
33 8 32 17 -3 30 -25 10 -28 15 -24 43 5 38 0 39 -26 4z"/>
<path d="M2140 1257 c0 -30 -4 -37 -32 -47 l-33 -13 33 -10 c28 -9 32 -14 32
-46 l0 -36 23 28 c20 26 25 27 51 17 38 -14 41 -9 15 24 -19 24 -20 29 -7 44
31 36 31 42 -3 30 -30 -10 -34 -9 -56 16 l-23 27 0 -34z"/>
<path d="M31 1224 c-22 -27 -28 -64 -12 -64 15 0 51 51 51 71 0 26 -15 24 -39
-7z"/>
<path d="M2352 1217 c-22 -23 -30 -67 -13 -67 15 0 51 51 51 71 0 25 -12 24
-38 -4z"/>
<path d="M31 1141 c-22 -30 -28 -61 -12 -61 15 0 51 51 51 71 0 27 -16 23 -39
-10z"/>
<path d="M2346 1129 c-26 -31 -34 -59 -17 -59 13 0 61 59 61 76 0 22 -16 16
-44 -17z"/>
<path d="M43 1066 c-24 -30 -30 -61 -14 -70 14 -9 42 43 39 72 l-3 27 -22 -29z"/>
<path d="M2335 1045 c-24 -23 -34 -55 -17 -55 14 0 62 51 62 65 0 22 -18 18
-45 -10z"/>
<path d="M56 989 c-21 -30 -23 -87 -2 -70 22 19 40 71 29 82 -7 7 -16 3 -27
-12z"/>
<path d="M2329 977 c-22 -17 -41 -55 -30 -61 11 -7 71 47 71 63 0 14 -21 13
-41 -2z"/>
<path d="M72 905 c-14 -31 -16 -75 -3 -75 12 0 40 71 34 87 -8 20 -19 15 -31
-12z"/>
<path d="M288 914 c-3 -5 -8 -21 -12 -36 -5 -21 -13 -27 -39 -30 l-32 -4 28
-14 c25 -12 28 -18 22 -48 l-6 -34 30 18 c28 16 31 16 55 0 29 -19 30 -18 16
20 -9 23 -7 31 11 51 l22 23 -32 0 c-26 0 -34 5 -45 31 -7 17 -16 28 -18 23z"/>
<path d="M2091 892 c-12 -27 -19 -32 -49 -32 l-35 0 27 -21 c25 -20 25 -21 11
-55 l-15 -35 34 20 33 21 23 -25 c29 -30 32 -28 21 13 -9 28 -7 33 22 51 31
20 32 21 7 21 -34 0 -45 10 -57 44 l-9 29 -13 -31z"/>
<path d="M2315 898 c-22 -12 -45 -37 -45 -50 0 -17 32 -7 55 17 38 37 32 57
-10 33z"/>
<path d="M96 828 c-15 -35 -13 -68 4 -68 17 0 33 60 22 83 -10 21 -11 21 -26
-15z"/>
<path d="M2285 818 c-26 -14 -46 -39 -39 -49 7 -13 61 18 74 41 12 23 -2 27
-35 8z"/>
<path d="M122 748 c-9 -35 -5 -68 8 -68 13 0 31 65 24 83 -10 26 -23 20 -32
-15z"/>
<path d="M2254 741 c-33 -20 -49 -39 -42 -47 9 -9 69 19 78 36 19 36 10 39
-36 11z"/>
<path d="M159 683 c-11 -29 -5 -73 10 -73 10 0 21 35 21 67 0 33 -19 38 -31 6z"/>
<path d="M2213 670 c-24 -10 -51 -50 -33 -50 25 0 80 30 80 44 0 18 -14 19
-47 6z"/>
<path d="M196 606 c-11 -56 17 -94 30 -41 7 29 -2 75 -15 75 -5 0 -12 -15 -15
-34z"/>
<path d="M2184 603 c-25 -5 -59 -39 -47 -46 15 -9 78 18 81 36 2 9 0 16 -5 16
-4 -1 -18 -4 -29 -6z"/>
<path d="M468 562 c3 -34 1 -39 -30 -54 l-33 -17 32 0 c35 -1 53 -22 53 -63 1
-20 3 -19 19 12 17 31 23 35 53 32 l33 -4 -23 25 c-23 24 -23 26 -7 57 l16 31
-32 -16 c-30 -16 -32 -16 -58 9 l-26 25 3 -37z"/>
<path d="M1897 569 c-14 -20 -16 -20 -47 -4 -32 16 -33 16 -25 -1 17 -42 17
-56 0 -74 -18 -19 -17 -20 13 -20 24 0 35 -6 46 -27 15 -29 21 -24 28 22 2 14
13 22 38 25 l35 6 -33 17 c-29 16 -33 22 -27 48 8 34 -7 39 -28 8z"/>
<path d="M240 536 c0 -66 23 -89 34 -35 6 31 -7 69 -24 69 -6 0 -10 -15 -10
-34z"/>
<path d="M2121 527 c-34 -17 -38 -37 -9 -37 26 0 68 25 68 41 0 13 -30 11 -59
-4z"/>
<path d="M292 463 c3 -52 23 -69 31 -27 5 29 -10 74 -25 74 -5 0 -8 -21 -6
-47z"/>
<path d="M2045 450 c-18 -20 -17 -20 14 -20 35 0 71 15 71 30 0 19 -66 11 -85
-10z"/>
<path d="M347 444 c-18 -18 1 -94 23 -94 14 0 12 63 -3 84 -7 9 -16 14 -20 10z"/>
<path d="M1998 399 c-27 -15 -21 -29 13 -29 34 0 69 15 69 30 0 13 -60 12 -82
-1z"/>
<path d="M400 359 c0 -34 15 -69 30 -69 15 0 11 62 -4 83 -19 25 -26 21 -26
-14z"/>
<path d="M1534 357 c4 -35 2 -38 -27 -51 l-32 -14 33 -7 c27 -6 32 -12 32 -36
0 -38 14 -44 29 -13 10 23 15 25 48 19 l36 -6 -21 26 c-20 25 -20 29 -6 56 16
33 15 34 -21 17 -24 -11 -29 -9 -51 18 l-25 29 5 -38z"/>
<path d="M836 361 c-19 -20 -28 -21 -74 -3 -8 3 -7 -6 5 -26 17 -29 17 -31 0
-50 -24 -27 -21 -31 16 -25 29 4 35 1 47 -24 l14 -28 5 34 c5 29 11 36 41 44
l35 10 -30 12 c-22 10 -31 21 -35 45 l-5 32 -19 -21z"/>
<path d="M1933 343 c-25 -9 -12 -23 21 -23 40 0 66 8 66 21 0 9 -66 11 -87 2z"/>
<path d="M460 308 c0 -22 7 -41 20 -53 20 -18 20 -17 20 17 0 22 -7 41 -20 53
-20 18 -20 17 -20 -17z"/>
<path d="M1186 293 c-7 -30 -11 -33 -44 -33 l-37 -1 27 -24 c24 -21 27 -28 18
-50 -14 -37 -13 -38 19 -19 28 16 31 16 56 0 l27 -18 -7 33 c-7 29 -4 36 21
56 l29 23 -37 0 c-33 0 -40 4 -51 33 l-14 32 -7 -32z"/>
<path d="M1873 293 c-22 -8 -14 -20 18 -27 31 -6 69 7 69 24 0 10 -65 12 -87
3z"/>
<path d="M520 270 c0 -27 20 -68 36 -74 16 -6 18 21 5 57 -12 32 -41 44 -41
17z"/>
<path d="M1809 248 c-34 -13 -10 -30 36 -26 21 2 40 8 42 14 5 15 -48 23 -78
12z"/>
<path d="M590 208 c12 -39 43 -68 48 -44 5 23 -21 70 -40 74 -15 3 -16 -1 -8
-30z"/>
<path d="M1725 201 c-12 -20 58 -36 87 -20 22 12 22 12 3 20 -28 11 -83 11
-90 0z"/>
<path d="M661 172 c12 -34 44 -68 53 -54 8 14 -27 77 -46 80 -15 3 -16 -1 -7
-26z"/>
<path d="M1668 173 c-27 -7 -22 -20 11 -31 30 -11 71 -6 71 8 0 6 -60 33 -64
29 -1 -1 -9 -3 -18 -6z"/>
<path d="M730 150 c0 -23 51 -81 57 -64 6 19 -15 62 -37 74 -17 9 -20 8 -20
-10z"/>
<path d="M800 126 c0 -20 39 -66 56 -66 8 0 14 2 14 5 0 16 -31 63 -45 69 -23
8 -25 8 -25 -8z"/>
<path d="M1580 132 c0 -11 46 -32 70 -32 27 0 34 17 11 29 -23 13 -81 15 -81
3z"/>
<path d="M1505 110 c-9 -14 60 -44 82 -36 17 7 16 9 -6 27 -25 20 -66 25 -76
9z"/>
<path d="M886 81 c18 -30 49 -49 62 -37 10 11 -34 61 -58 64 -22 4 -22 4 -4
-27z"/>
<path d="M1425 90 c-7 -11 46 -40 75 -40 29 0 25 17 -10 35 -33 17 -56 19 -65
5z"/>
<path d="M960 71 c13 -25 58 -56 67 -47 11 11 -33 61 -56 64 -20 3 -21 1 -11
-17z"/>
<path d="M1030 71 c0 -11 58 -61 71 -61 17 0 9 26 -14 48 -24 22 -57 30 -57
13z"/>
<path d="M1350 71 c0 -13 47 -41 70 -41 26 0 26 15 -2 34 -24 17 -68 22 -68 7z"/>
<path d="M1112 58 c7 -20 54 -50 73 -46 15 3 14 7 -9 31 -25 27 -71 38 -64 15z"/>
<path d="M1190 61 c0 -15 51 -51 71 -51 26 0 24 15 -7 39 -27 22 -64 28 -64
12z"/>
<path d="M1270 61 c0 -13 47 -41 70 -41 27 0 25 14 -5 34 -26 17 -65 22 -65 7z"/>
</g>
</svg>
